<?xml version="1.0" encoding="utf-8"?>
<!-- Generator: Adobe Illustrator 25.0.1, SVG Export Plug-In . SVG Version: 6.00 Build 0)  -->
<svg version="1.1" id="레이어_1" xmlns="http://www.w3.org/2000/svg" xmlns:xlink="http://www.w3.org/1999/xlink" x="0px"
	 y="0px" viewBox="0 0 215 78" style="enable-background:new 0 0 215 78;" xml:space="preserve">
<style type="text/css">
	.st0{fill:#FFFFFF;}
</style>
<g>
	<path class="st0" d="M0.5,55.8h64.9c-0.3-3.4-2.3-6.8-5.5-8c-1.7-0.7-3.6-0.8-5.2-1.7c-2.3-1.3-3.5-3.9-5.4-5.7
		c-2.6-2.4-6.7-3.1-10-1.8c-1.2,0.5-2.3,1.2-3.6,1.5c-1.9,0.4-3.9-0.4-5.8-1c-2.9-0.8-6.1-1.1-9-0.3c-2.9,0.8-5.7,2.7-7.2,5.3
		c-0.8,1.4-1.3,3-2.4,4.2c-1.5,1.6-3.7,2.1-5.8,2.8C3.4,52,1,53.7,0.5,55.8z"/>
	<path class="st0" d="M113.6,77.6H74.4c0.2-2.1,1.4-4.1,3.3-4.8c1-0.4,2.2-0.5,3.1-1c1.4-0.8,2.1-2.3,3.3-3.4
		c1.6-1.5,4.1-1.9,6.1-1.1c0.7,0.3,1.4,0.8,2.2,0.9c1.2,0.2,2.3-0.3,3.5-0.6c1.8-0.5,3.7-0.6,5.5-0.2c1.8,0.5,3.4,1.6,4.3,3.2
		c0.5,0.8,0.8,1.8,1.4,2.5c0.9,1,2.3,1.3,3.5,1.7C111.8,75.3,113.2,76.3,113.6,77.6z"/>
	<path class="st0" d="M214.5,22.9H133c0.4-4.3,2.9-8.5,6.9-10.1c2.1-0.8,4.5-1,6.5-2.2c2.9-1.6,4.4-4.9,6.8-7.1
		c3.3-3,8.5-3.9,12.6-2.2c1.5,0.6,2.9,1.6,4.5,1.9c2.4,0.5,4.9-0.5,7.2-1.2c3.7-1.1,7.7-1.3,11.4-0.3c3.7,1,7.1,3.4,9,6.7
		c1,1.8,1.6,3.8,3,5.3c1.8,2,4.7,2.7,7.3,3.5C210.9,18,213.8,20.2,214.5,22.9z"/>
</g>
</svg>
