<?xml version="1.0" encoding="utf-8"?>
<!-- Generator: Adobe Illustrator 25.0.1, SVG Export Plug-In . SVG Version: 6.00 Build 0)  -->
<svg version="1.1" id="레이어_1" xmlns="http://www.w3.org/2000/svg" xmlns:xlink="http://www.w3.org/1999/xlink" x="0px"
	 y="0px" viewBox="0 0 114 48" style="enable-background:new 0 0 114 48;" xml:space="preserve">
<style type="text/css">
	.st0{fill:#FFFFFF;}
</style>
<g>
	<path class="st0" d="M49.1,47.8H114c-0.3-3.4-2.3-6.8-5.5-8c-1.7-0.7-3.6-0.8-5.2-1.7c-2.3-1.3-3.5-3.9-5.4-5.7
		c-2.6-2.4-6.7-3.1-10-1.8c-1.2,0.5-2.3,1.2-3.6,1.5c-1.9,0.4-3.9-0.4-5.8-1c-2.9-0.8-6.1-1.1-9-0.3c-2.9,0.8-5.7,2.7-7.2,5.3
		c-0.8,1.4-1.3,3-2.4,4.2c-1.5,1.6-3.7,2.1-5.8,2.8C52,43.9,49.7,45.7,49.1,47.8z"/>
	<path class="st0" d="M39.1,11H0c0.2-2.1,1.4-4.1,3.3-4.8c1-0.4,2.2-0.5,3.1-1c1.4-0.8,2.1-2.3,3.3-3.4c1.6-1.5,4.1-1.9,6.1-1.1
		c0.7,0.3,1.4,0.8,2.2,0.9c1.2,0.2,2.3-0.3,3.5-0.6c1.8-0.5,3.7-0.6,5.5-0.2c1.8,0.5,3.4,1.6,4.3,3.2c0.5,0.8,0.8,1.8,1.4,2.5
		c0.9,1,2.3,1.3,3.5,1.7C37.4,8.6,38.8,9.7,39.1,11z"/>
</g>
</svg>
