<?xml version="1.0" encoding="utf-8"?>
<!-- Generator: Adobe Illustrator 25.0.1, SVG Export Plug-In . SVG Version: 6.00 Build 0)  -->
<svg version="1.1" id="Layer_1" xmlns="http://www.w3.org/2000/svg" xmlns:xlink="http://www.w3.org/1999/xlink" x="0px" y="0px"
	 viewBox="0 0 65 65" style="enable-background:new 0 0 65 65;" xml:space="preserve">
<style type="text/css">
	.st0{fill:none;stroke:#000000;stroke-width:1.7;stroke-linecap:round;stroke-linejoin:round;stroke-miterlimit:10;}
	.st1{fill:none;stroke:#F24C60;stroke-width:1.2;stroke-linecap:round;stroke-linejoin:round;stroke-miterlimit:10;}
	.st2{fill:none;stroke:#111111;stroke-width:1.7;stroke-linecap:round;stroke-linejoin:round;stroke-miterlimit:10;}
</style>
<g>
	<g>
		<g>
			<path class="st0" d="M45,51.4c0,1.2-1,2.1-2.2,2.1H13.3c-1.2,0-2.2-0.9-2.2-2.1V10.6c0-1.2,1-2.1,2.2-2.1h29.4
				c1.2,0,2.2,0.9,2.2,2.1v15"/>
			<g>
				<path class="st0" d="M17.7,56.5h-1.3c-1.1,0-2-0.9-2-2v-1h5.3v1C19.7,55.6,18.8,56.5,17.7,56.5z"/>
				<path class="st0" d="M39.9,56.5h-1c-1.1,0-2-0.9-2-2v-1h5v1C41.9,55.6,41,56.5,39.9,56.5z"/>
			</g>
		</g>
		<rect x="15.4" y="12.6" class="st0" width="25.3" height="13.7"/>
		<g>
			<line class="st0" x1="19.1" y1="17.6" x2="37" y2="17.6"/>
			<line class="st0" x1="19.1" y1="21.2" x2="37" y2="21.2"/>
		</g>
	</g>
	<circle class="st0" cx="45" cy="38.6" r="8.9"/>
	<g>
		<line class="st1" x1="51.7" y1="38.6" x2="38.3" y2="38.6"/>
		<line class="st1" x1="41.6" y1="44.4" x2="48.3" y2="32.8"/>
		<line class="st1" x1="41.6" y1="32.8" x2="48.3" y2="44.4"/>
		<line class="st1" x1="50.2" y1="40.6" x2="48.5" y2="38.6"/>
		<line class="st1" x1="50.2" y1="36.7" x2="48.5" y2="38.6"/>
		<line class="st1" x1="45.9" y1="44.1" x2="46.8" y2="41.7"/>
		<line class="st1" x1="49.3" y1="42.2" x2="46.8" y2="41.7"/>
		<line class="st1" x1="40.7" y1="42.2" x2="43.2" y2="41.7"/>
		<line class="st1" x1="44.1" y1="44.1" x2="43.2" y2="41.7"/>
		<line class="st1" x1="39.7" y1="36.7" x2="41.4" y2="38.6"/>
		<line class="st1" x1="39.7" y1="40.6" x2="41.4" y2="38.6"/>
		<line class="st1" x1="44.1" y1="33.1" x2="43.2" y2="35.5"/>
		<line class="st1" x1="40.7" y1="35.1" x2="43.2" y2="35.5"/>
		<line class="st1" x1="49.3" y1="35.1" x2="46.8" y2="35.5"/>
		<line class="st1" x1="45.9" y1="33.1" x2="46.8" y2="35.5"/>
	</g>
	<g>
		<g>
			<path class="st2" d="M19,30.9c0,0,0.9,0.7,0.9,2.3c0,1.6-0.9,2.3-0.9,2.3"/>
			<path class="st2" d="M19,40.2c0,0-0.9-0.7-0.9-2.3s0.9-2.3,0.9-2.3"/>
		</g>
		<g>
			<path class="st2" d="M24.6,30.9c0,0,0.9,0.7,0.9,2.3c0,1.6-0.9,2.3-0.9,2.3"/>
			<path class="st2" d="M24.6,40.2c0,0-0.9-0.7-0.9-2.3s0.9-2.3,0.9-2.3"/>
		</g>
		<g>
			<path class="st2" d="M30.1,30.9c0,0,0.9,0.7,0.9,2.3c0,1.6-0.9,2.3-0.9,2.3"/>
			<path class="st2" d="M30.1,40.2c0,0-0.9-0.7-0.9-2.3s0.9-2.3,0.9-2.3"/>
		</g>
	</g>
</g>
</svg>
