<?xml version="1.0" encoding="utf-8"?>
<!-- Generator: Adobe Illustrator 25.0.1, SVG Export Plug-In . SVG Version: 6.00 Build 0)  -->
<svg version="1.1" id="Layer_1" xmlns="http://www.w3.org/2000/svg" xmlns:xlink="http://www.w3.org/1999/xlink" x="0px" y="0px"
	 viewBox="0 0 65 65" style="enable-background:new 0 0 65 65;" xml:space="preserve">
<style type="text/css">
	.st0{fill:none;stroke:#000000;stroke-width:1.7;stroke-linecap:round;stroke-linejoin:round;stroke-miterlimit:10;}
	.st1{fill:none;stroke:#000000;stroke-width:1.5;stroke-linecap:round;stroke-linejoin:round;stroke-miterlimit:10;}
	.st2{fill:none;stroke:#F24C60;stroke-width:1.5;stroke-linecap:round;stroke-linejoin:round;stroke-miterlimit:10;}
	.st3{fill:none;stroke:#111111;stroke-width:1.7;stroke-linecap:round;stroke-linejoin:round;stroke-miterlimit:10;}
	.st4{fill:none;stroke:#000000;stroke-linecap:round;stroke-linejoin:round;stroke-miterlimit:10;}
</style>
<g>
	<path class="st0" d="M3,30V9.5h59v24.2c0,3.3-2.5,6.1-5.7,6.1H33.7"/>
	<g>
		<path class="st0" d="M52.9,19.2H12.1c-1.1,0-2-0.9-2-2V9.5h44.8v7.7C54.9,18.3,54,19.2,52.9,19.2z"/>
		<g>
			<line class="st1" x1="14.7" y1="12.8" x2="51" y2="12.8"/>
			<line class="st1" x1="14.7" y1="15.9" x2="51" y2="15.9"/>
		</g>
	</g>
	<path class="st0" d="M30.7,32.3h17.9c1.3,0,2.4,1.1,2.4,2.4v5H33.8"/>
	<circle class="st0" cx="16.1" cy="42.7" r="12.8"/>
	<g>
		<line class="st2" x1="25.7" y1="42.7" x2="6.5" y2="42.7"/>
		<line class="st2" x1="11.3" y1="51.1" x2="20.9" y2="34.4"/>
		<line class="st2" x1="11.3" y1="34.4" x2="20.9" y2="51.1"/>
		<line class="st2" x1="23.6" y1="45.6" x2="21.2" y2="42.7"/>
		<line class="st2" x1="23.6" y1="39.9" x2="21.2" y2="42.7"/>
		<line class="st2" x1="17.4" y1="50.7" x2="18.7" y2="47.2"/>
		<line class="st2" x1="22.3" y1="47.8" x2="18.7" y2="47.2"/>
		<line class="st2" x1="9.9" y1="47.8" x2="13.5" y2="47.2"/>
		<line class="st2" x1="14.8" y1="50.7" x2="13.5" y2="47.2"/>
		<line class="st2" x1="8.6" y1="39.9" x2="11" y2="42.7"/>
		<line class="st2" x1="8.6" y1="45.6" x2="11" y2="42.7"/>
		<line class="st2" x1="14.8" y1="34.8" x2="13.5" y2="38.3"/>
		<line class="st2" x1="9.9" y1="37.6" x2="13.5" y2="38.3"/>
		<line class="st2" x1="22.3" y1="37.6" x2="18.7" y2="38.3"/>
		<line class="st2" x1="17.4" y1="34.8" x2="18.7" y2="38.3"/>
	</g>
	<g>
		<g>
			<path class="st3" d="M38,44.2c0,0,1.3,0.9,1.3,2.8S38,49.8,38,49.8"/>
			<path class="st3" d="M38,55.5c0,0-1.3-0.9-1.3-2.8s1.3-2.8,1.3-2.8"/>
		</g>
		<g>
			<path class="st3" d="M45.9,44.2c0,0,1.3,0.9,1.3,2.8s-1.3,2.8-1.3,2.8"/>
			<path class="st3" d="M45.9,55.5c0,0-1.3-0.9-1.3-2.8s1.3-2.8,1.3-2.8"/>
		</g>
		<g>
			<path class="st3" d="M53.9,44.2c0,0,1.3,0.9,1.3,2.8s-1.3,2.8-1.3,2.8"/>
			<path class="st3" d="M53.9,55.5c0,0-1.3-0.9-1.3-2.8s1.3-2.8,1.3-2.8"/>
		</g>
	</g>
	<circle class="st4" cx="53.9" cy="27.1" r="0.6"/>
	<circle class="st4" cx="58.4" cy="27.1" r="0.6"/>
</g>
</svg>
