<?xml version="1.0" encoding="utf-8"?>
<!-- Generator: Adobe Illustrator 25.0.1, SVG Export Plug-In . SVG Version: 6.00 Build 0)  -->
<svg version="1.1" id="Layer_1" xmlns="http://www.w3.org/2000/svg" xmlns:xlink="http://www.w3.org/1999/xlink" x="0px" y="0px"
	 viewBox="0 0 65 65" style="enable-background:new 0 0 65 65;" xml:space="preserve">
<style type="text/css">
	.st0{fill:none;stroke:#000000;stroke-width:1.7;stroke-linecap:round;stroke-linejoin:round;stroke-miterlimit:10;}
	.st1{fill:none;stroke:#F24C60;stroke-width:1.7;stroke-linecap:round;stroke-linejoin:round;stroke-miterlimit:10;}
</style>
<g>
	<polygon class="st0" points="51.9,51.9 61.3,51.9 61.3,32.7 3.7,32.7 3.7,51.9 	"/>
	<path class="st0" d="M55.8,27H9.2c-1.2,0-2.2,1-2.2,2.2v1.3c0,1.2,1,2.2,2.2,2.2h46.7c1.2,0,2.2-1,2.2-2.2v-1.3
		C58.1,28,57.1,27,55.8,27z"/>
	<g>
		<path class="st1" d="M17.3,20.6c-1.1,0-2,0.9-2,2V27h14.1v-4.4c0-1.1-0.9-2-2-2h-6.2"/>
		<path class="st1" d="M47.7,20.6H37.6c-1.1,0-2,0.9-2,2V27h14.1v-4.4C49.7,21.5,48.8,20.6,47.7,20.6z"/>
	</g>
	<path class="st0" d="M43.8,9.5H12.8c-1.7,0-3,1.3-3,3V27h45.5V12.5c0-1.7-1.3-3-3-3h-3"/>
	<line class="st0" x1="9.8" y1="51.9" x2="9.8" y2="55.5"/>
	<line class="st0" x1="55.2" y1="51.9" x2="55.2" y2="55.5"/>
</g>
</svg>
