<?xml version="1.0" encoding="utf-8"?>
<!-- Generator: Adobe Illustrator 25.0.1, SVG Export Plug-In . SVG Version: 6.00 Build 0)  -->
<svg version="1.1" id="Layer_1" xmlns="http://www.w3.org/2000/svg" xmlns:xlink="http://www.w3.org/1999/xlink" x="0px" y="0px"
	 viewBox="0 0 65 65" style="enable-background:new 0 0 65 65;" xml:space="preserve">
<style type="text/css">
	.st0{fill:none;stroke:#F24C60;stroke-width:1.7;stroke-linecap:round;stroke-linejoin:round;stroke-miterlimit:10;}
	.st1{fill:none;stroke:#000000;stroke-width:1.7;stroke-linecap:round;stroke-linejoin:round;stroke-miterlimit:10;}
</style>
<g>
	<g>
		<path class="st0" d="M36,15.4c3,0.3,2.9,0.7,2.9,0.7s1,0.1,1,7.7s-1,7.7-1,7.7s0.4,1-12.7,1s-12.9-1-12.9-1s-1,0-1-7.7
			s1-7.7,1-7.7s0-1,12.9-1c2.3,0,4.2,0,5.8,0.1"/>
		<path class="st0" d="M23.6,15.1c1.9-5.8,2.7-5.5,2.7-5.5s0.3-1,12.6,2.8s11.8,4.7,11.8,4.7s1,0.4-1.3,7.6s-3.2,7-3.2,7
			s0.1,0.7-6.3-1"/>
	</g>
	<path class="st1" d="M12.8,32.5c-3.2,0-5.9,2.6-5.9,5.9v4.3c0,2.8,2.3,5.1,5.1,5.1h-1.3c-2.1,0-3.8,1.7-3.8,3.8v0
		c0,2.1,1.7,3.8,3.8,3.8h36c6.2,0,11.2-5,11.2-11.2v-0.5c0-6.2-5-11.2-11.2-11.2H12.8z"/>
	<path class="st1" d="M17.6,40.2h31c2.1,0,3.8,1.7,3.8,3.8v0c0,2.1-1.7,3.8-3.8,3.8"/>
	<line class="st1" x1="17.5" y1="47.8" x2="48.6" y2="47.8"/>
</g>
</svg>
