<?xml version="1.0" encoding="utf-8"?>
<!-- Generator: Adobe Illustrator 25.0.1, SVG Export Plug-In . SVG Version: 6.00 Build 0)  -->
<svg version="1.1" id="Layer_1" xmlns="http://www.w3.org/2000/svg" xmlns:xlink="http://www.w3.org/1999/xlink" x="0px" y="0px"
	 viewBox="0 0 65 65" style="enable-background:new 0 0 65 65;" xml:space="preserve">
<style type="text/css">
	.st0{fill:none;stroke:#000000;stroke-width:1.7;stroke-linecap:round;stroke-linejoin:round;stroke-miterlimit:10;}
	.st1{fill:none;stroke:#F24C60;stroke-width:1.5;stroke-linecap:round;stroke-linejoin:round;stroke-miterlimit:10;}
</style>
<g>
	<g>
		<path class="st0" d="M44.2,39.1v12.4c0,1.2-0.9,2.1-2.1,2.1H14.2c-1.2,0-2.1-0.9-2.1-2.1V10.6c0-1.2,0.9-2.1,2.1-2.1h27.8
			c1.2,0,2.1,0.9,2.1,2.1v5.7"/>
		<g>
			<path class="st0" d="M18.3,56.5h-1c-1.1,0-2-0.9-2-2v-1h5v1C20.3,55.6,19.4,56.5,18.3,56.5z"/>
			<path class="st0" d="M39.1,56.5h-1c-1.1,0-2-0.9-2-2v-1h5v1C41.1,55.6,40.2,56.5,39.1,56.5z"/>
		</g>
		<line class="st0" x1="12.2" y1="27.5" x2="31.4" y2="27.5"/>
		<line class="st0" x1="16.7" y1="32.2" x2="16.7" y2="37.4"/>
		<line class="st0" x1="16.7" y1="17.4" x2="16.7" y2="22.6"/>
	</g>
	<g>
		<line class="st1" x1="52.8" y1="27.5" x2="35.5" y2="27.5"/>
		<line class="st1" x1="39.8" y1="35" x2="48.5" y2="20"/>
		<line class="st1" x1="39.8" y1="20" x2="48.5" y2="35"/>
		<line class="st1" x1="50.9" y1="30.1" x2="48.8" y2="27.5"/>
		<line class="st1" x1="50.9" y1="25" x2="48.8" y2="27.5"/>
		<line class="st1" x1="45.3" y1="34.7" x2="46.5" y2="31.5"/>
		<line class="st1" x1="49.8" y1="32.1" x2="46.5" y2="31.5"/>
		<line class="st1" x1="38.6" y1="32.1" x2="41.8" y2="31.5"/>
		<line class="st1" x1="43" y1="34.7" x2="41.8" y2="31.5"/>
		<line class="st1" x1="37.4" y1="25" x2="39.5" y2="27.5"/>
		<line class="st1" x1="37.4" y1="30.1" x2="39.5" y2="27.5"/>
		<line class="st1" x1="43" y1="20.4" x2="41.8" y2="23.5"/>
		<line class="st1" x1="38.6" y1="22.9" x2="41.8" y2="23.5"/>
		<line class="st1" x1="49.8" y1="22.9" x2="46.5" y2="23.5"/>
		<line class="st1" x1="45.3" y1="20.4" x2="46.5" y2="23.5"/>
	</g>
</g>
</svg>
