<?xml version="1.0" encoding="utf-8"?>
<!-- Generator: Adobe Illustrator 25.0.1, SVG Export Plug-In . SVG Version: 6.00 Build 0)  -->
<svg version="1.1" id="Layer_1" xmlns="http://www.w3.org/2000/svg" xmlns:xlink="http://www.w3.org/1999/xlink" x="0px" y="0px"
	 viewBox="0 0 65 65" style="enable-background:new 0 0 65 65;" xml:space="preserve">
<style type="text/css">
	.st0{fill:none;stroke:#000000;stroke-width:1.7;stroke-linecap:round;stroke-linejoin:round;stroke-miterlimit:10;}
	.st1{fill:none;stroke:#F24C60;stroke-width:1.7;stroke-linecap:round;stroke-linejoin:round;stroke-miterlimit:10;}
</style>
<g>
	<ellipse class="st0" cx="32.5" cy="32.5" rx="25" ry="23"/>
	<path class="st0" d="M20.4,46.9c-4.7-3.3-7.7-8.6-7.7-14.4c0-4.4,1.7-8.5,4.6-11.7"/>
	<path class="st0" d="M35.6,50.5c-1,0.1-2.1,0.2-3.1,0.2c-0.7,0-1.4,0-2.1-0.1"/>
	<path class="st0" d="M48.8,22.1c2.2,2.9,3.5,6.5,3.5,10.4c0,5.5-2.6,10.4-6.8,13.7"/>
	<g>
		<path class="st1" d="M30.4,21.5c0-3.7-2.2-6.6-5-6.6s-5,3-5,6.6c0,3,1.5,5.5,3.5,6.3v22.3h3V27.9C28.9,27,30.4,24.5,30.4,21.5z"/>
		<path class="st1" d="M35.6,14.9v10c0,1.7,1.3,3,3,3v22.2h3V27.9c1.7,0,3-1.3,3-3v-10"/>
		<line class="st1" x1="38.7" y1="14.9" x2="38.7" y2="22.1"/>
		<line class="st1" x1="41.5" y1="14.9" x2="41.5" y2="22.1"/>
	</g>
</g>
</svg>
