<?xml version="1.0" encoding="utf-8"?>
<!-- Generator: Adobe Illustrator 25.0.1, SVG Export Plug-In . SVG Version: 6.00 Build 0)  -->
<svg version="1.1" id="Layer_1" xmlns="http://www.w3.org/2000/svg" xmlns:xlink="http://www.w3.org/1999/xlink" x="0px" y="0px"
	 viewBox="0 0 65 65" style="enable-background:new 0 0 65 65;" xml:space="preserve">
<style type="text/css">
	.st0{fill:none;stroke:#000000;stroke-width:1.7;stroke-linecap:round;stroke-linejoin:round;stroke-miterlimit:10;}
	.st1{fill:none;stroke:#F24C60;stroke-width:1.7;stroke-linecap:round;stroke-linejoin:round;stroke-miterlimit:10;}
</style>
<g>
	<g>
		<g>
			<path class="st0" d="M13.7,55.5h-1.4c-1.1,0-2-0.9-2-2v-1.2h5.4v1.2C15.7,54.6,14.8,55.5,13.7,55.5z"/>
			<path class="st0" d="M52.7,55.5h-1.4c-1.1,0-2-0.9-2-2v-1.2h5.4v1.2C54.7,54.6,53.8,55.5,52.7,55.5z"/>
		</g>
		<path class="st0" d="M52.6,9.5h5.7c1.1,0,2,0.9,2,2v38.8c0,1.1-0.9,2-2,2H6.7c-1.1,0-2-0.9-2-2V11.5c0-1.1,0.9-2,2-2h39.8"/>
		<polyline class="st0" points="13,48 8.6,48 8.6,13.8 49.2,13.8 49.2,48 18.6,48 		"/>
		<g>
			<circle class="st0" cx="54.7" cy="22.3" r="2.1"/>
			<circle class="st0" cx="54.7" cy="29.8" r="2.1"/>
			<line class="st0" x1="52.6" y1="36" x2="56.8" y2="36"/>
			<line class="st0" x1="52.6" y1="38.8" x2="56.8" y2="38.8"/>
			<line class="st0" x1="52.6" y1="41.6" x2="56.8" y2="41.6"/>
		</g>
	</g>
	<polygon class="st1" points="36.9,39.5 20.9,39.5 19.3,35.2 38.5,35.2 	"/>
	<line class="st1" x1="17.1" y1="35.2" x2="40.7" y2="35.2"/>
	<g>
		<g>
			<path class="st1" d="M23.7,24.3c0,0,0.9,0.5,0.9,1.6s-0.9,1.6-0.9,1.6"/>
			<path class="st1" d="M23.7,30.6c0,0-0.9-0.5-0.9-1.6s0.9-1.6,0.9-1.6"/>
		</g>
		<g>
			<path class="st1" d="M28.9,24.3c0,0,0.9,0.5,0.9,1.6s-0.9,1.6-0.9,1.6"/>
			<path class="st1" d="M28.9,30.6c0,0-0.9-0.5-0.9-1.6s0.9-1.6,0.9-1.6"/>
		</g>
		<g>
			<path class="st1" d="M34.2,24.3c0,0,0.9,0.5,0.9,1.6s-0.9,1.6-0.9,1.6"/>
			<path class="st1" d="M34.2,30.6c0,0-0.9-0.5-0.9-1.6s0.9-1.6,0.9-1.6"/>
		</g>
	</g>
</g>
</svg>
