<?xml version="1.0" encoding="utf-8"?>
<!-- Generator: Adobe Illustrator 25.0.1, SVG Export Plug-In . SVG Version: 6.00 Build 0)  -->
<svg version="1.1" id="Layer_1" xmlns="http://www.w3.org/2000/svg" xmlns:xlink="http://www.w3.org/1999/xlink" x="0px" y="0px"
	 viewBox="0 0 65 65" style="enable-background:new 0 0 65 65;" xml:space="preserve">
<style type="text/css">
	.st0{fill:none;stroke:#F24C60;stroke-width:1.7;stroke-linecap:round;stroke-linejoin:round;stroke-miterlimit:10;}
	.st1{fill:none;stroke:#000000;stroke-width:1.7;stroke-linecap:round;stroke-linejoin:round;stroke-miterlimit:10;}
</style>
<g>
	<g>
		<path class="st0" d="M44.8,31.5h3.5c1.1,0,2,0.9,2,2v0c0,1.1-0.9,2-2,2h-31c-1.1,0-2-0.9-2-2v0c0-1.1,0.9-2,2-2h22"/>
		<path class="st0" d="M34.2,39.2h-2.9c-1.1,0-2-0.9-2-2v-1.5h6.9v1.5C36.2,38.3,35.4,39.2,34.2,39.2z"/>
		<line class="st0" x1="32.8" y1="39.2" x2="32.8" y2="55.5"/>
		<line class="st0" x1="26.8" y1="55.5" x2="38.8" y2="55.5"/>
		<g>
			<line class="st1" x1="59.8" y1="46.3" x2="59.8" y2="55.5"/>
			<rect x="44.8" y="42" class="st1" width="15" height="4"/>
			<path class="st1" d="M59.8,42h-4V32c0-1.1,0.9-2,2-2h2V42z"/>
			<line class="st1" x1="44.8" y1="46.3" x2="44.8" y2="55.5"/>
		</g>
		<g>
			<line class="st1" x1="5.2" y1="46.3" x2="5.2" y2="55.5"/>
			<polyline class="st1" points="17.3,46 20.2,46 20.2,42 5.2,42 5.2,46 13.5,46 			"/>
			<path class="st1" d="M5.2,42h4V32c0-1.1-0.9-2-2-2h-2V42z"/>
			<line class="st1" x1="20.2" y1="46.3" x2="20.2" y2="55.5"/>
		</g>
	</g>
	<g>
		<polygon class="st1" points="27.6,21.8 32.5,16.9 37.4,21.8 		"/>
		<line class="st1" x1="32.5" y1="16.9" x2="32.5" y2="9.5"/>
	</g>
</g>
</svg>
