<?xml version="1.0" encoding="utf-8"?>
<!-- Generator: Adobe Illustrator 25.0.1, SVG Export Plug-In . SVG Version: 6.00 Build 0)  -->
<svg version="1.1" id="Layer_1" xmlns="http://www.w3.org/2000/svg" xmlns:xlink="http://www.w3.org/1999/xlink" x="0px" y="0px"
	 viewBox="0 0 65 65" style="enable-background:new 0 0 65 65;" xml:space="preserve">
<style type="text/css">
	.st0{fill:none;stroke:#000000;stroke-width:1.7;stroke-linecap:round;stroke-linejoin:round;stroke-miterlimit:10;}
	.st1{fill:none;stroke:#F24C60;stroke-width:1.7;stroke-linecap:round;stroke-linejoin:round;stroke-miterlimit:10;}
</style>
<g>
	<g>
		<path class="st0" d="M19.4,56.5h-1c-1.1,0-2-0.9-2-2v-1h5v1C21.4,55.6,20.5,56.5,19.4,56.5z"/>
		<path class="st0" d="M46.6,56.5h-1c-1.1,0-2-0.9-2-2v-1h5v1C48.6,55.6,47.7,56.5,46.6,56.5z"/>
	</g>
	<path class="st0" d="M51.4,53.5H13.6c-1.1,0-2-0.9-2-2v-41c0-1.1,0.9-2,2-2h37.9c1.1,0,2,0.9,2,2v41C53.4,52.6,52.5,53.5,51.4,53.5
		z"/>
	<g>
		<path class="st0" d="M43.2,25.9c-1.5-1.5-3.2-2.6-5-3.3L35.7,25"/>
		<path class="st0" d="M43.2,25.9c1.5,1.5,2.6,3.2,3.3,5l-2.5,2.5"/>
	</g>
	<line class="st0" x1="49" y1="18.2" x2="53.4" y2="18.2"/>
	<line class="st0" x1="11.6" y1="18.2" x2="43.2" y2="18.2"/>
	<line class="st0" x1="25.9" y1="8.5" x2="25.9" y2="18.2"/>
	<circle class="st0" cx="18.9" cy="13.3" r="2.1"/>
	<rect x="28.5" y="11.2" class="st0" width="10.4" height="4.2"/>
	<g>
		<line class="st0" x1="42.7" y1="11.9" x2="44.5" y2="11.9"/>
		<line class="st0" x1="48" y1="11.9" x2="49.8" y2="11.9"/>
		<line class="st0" x1="42.7" y1="14.7" x2="44.5" y2="14.7"/>
		<line class="st0" x1="48" y1="14.7" x2="49.8" y2="14.7"/>
	</g>
	<path class="st1" d="M41.4,36.6c0,0-1.5,1.6-4.3,1.6s-4.6-1.6-4.6-1.6s-2.2-1.5-4.4-1.5s-4.5,1.5-4.5,1.5"/>
	<g>
		<path class="st0" d="M25.9,26.6c4.7-3.1,11-2.6,15.1,1.5c4.7,4.7,4.7,12.3,0,17s-12.3,4.7-17,0c-4.5-4.5-4.7-11.5-0.7-16.3"/>
		<circle class="st0" cx="32.5" cy="36.6" r="8.9"/>
	</g>
</g>
</svg>
