<?xml version="1.0" encoding="utf-8"?>
<!-- Generator: Adobe Illustrator 25.0.1, SVG Export Plug-In . SVG Version: 6.00 Build 0)  -->
<svg version="1.1" id="Layer_1" xmlns="http://www.w3.org/2000/svg" xmlns:xlink="http://www.w3.org/1999/xlink" x="0px" y="0px"
	 viewBox="0 0 35 35" style="enable-background:new 0 0 35 35;" xml:space="preserve">
<style type="text/css">
	.st0{fill:#FFFFFF;stroke:#AB2229;stroke-width:0.7;stroke-linecap:round;stroke-linejoin:round;stroke-miterlimit:10;}
	.st1{fill:#FFD4D5;stroke:#AB2229;stroke-width:0.7;stroke-linecap:round;stroke-linejoin:round;stroke-miterlimit:10;}
	.st2{fill:#FF7A7E;}
	.st3{fill:#FFD4D5;}
	.st4{fill:#FF7A7E;stroke:#AB2229;stroke-width:0.7;stroke-linecap:round;stroke-linejoin:round;stroke-miterlimit:10;}
</style>
<g>
	<rect x="4.9" y="2.7" class="st0" width="23.1" height="28.3"/>
	<rect x="11.1" y="1" class="st1" width="10.7" height="3.5"/>
	<g>
		<g>
			<g>
				<g>
					<rect x="8.2" y="8.8" class="st2" width="4" height="4"/>
					<g>
						<rect x="14.3" y="9.3" class="st3" width="10.4" height="1"/>
						<rect x="14.3" y="11.3" class="st3" width="10.4" height="1"/>
					</g>
				</g>
				<g>
					<rect x="8.2" y="15.3" class="st2" width="4" height="4"/>
					<g>
						<rect x="14.3" y="15.8" class="st3" width="10.4" height="1"/>
						<rect x="14.3" y="17.8" class="st3" width="10.4" height="1"/>
					</g>
				</g>
				<g>
					<rect x="8.2" y="21.7" class="st2" width="4" height="4"/>
					<g>
						<rect x="14.3" y="22.2" class="st3" width="10.4" height="1"/>
						<rect x="14.3" y="24.2" class="st3" width="10.4" height="1"/>
					</g>
				</g>
			</g>
		</g>
	</g>
	<g>
		<g>
			<polygon class="st4" points="28,7.2 27,9.8 29,9.8 			"/>
			<polygon class="st0" points="29,9.8 27,9.8 26.9,10 25.9,12.7 28,12.7 30.1,12.7 29.1,10 			"/>
		</g>
		<g>
			<rect x="25.9" y="12.8" class="st1" width="2.1" height="18.2"/>
			<rect x="28" y="12.8" class="st1" width="2.1" height="18.2"/>
		</g>
		<path class="st4" d="M28,34L28,34c-1.2,0-2.1-0.9-2.1-2.1v-0.8h4.2v0.8C30.1,33.1,29.2,34,28,34z"/>
	</g>
</g>
</svg>
