<?xml version="1.0" encoding="utf-8"?>
<!-- Generator: Adobe Illustrator 25.0.1, SVG Export Plug-In . SVG Version: 6.00 Build 0)  -->
<svg version="1.1" id="Layer_1" xmlns="http://www.w3.org/2000/svg" xmlns:xlink="http://www.w3.org/1999/xlink" x="0px" y="0px"
	 viewBox="0 0 35 35" style="enable-background:new 0 0 35 35;" xml:space="preserve">
<style type="text/css">
	.st0{fill:#FF7A7E;stroke:#AB2229;stroke-width:0.7;stroke-linecap:round;stroke-linejoin:round;stroke-miterlimit:10;}
	.st1{fill:#FFFFFF;stroke:#AB2229;stroke-width:0.7;stroke-linecap:round;stroke-linejoin:round;stroke-miterlimit:10;}
	.st2{fill:#FFD4D5;stroke:#AB2229;stroke-width:0.7;stroke-linecap:round;stroke-linejoin:round;stroke-miterlimit:10;}
</style>
<g>
	<g>
		<g>
			<circle class="st0" cx="7.2" cy="9.1" r="6.2"/>
		</g>
		<polyline class="st0" points="4.8,8.9 6.7,10.8 9.5,7.3 		"/>
	</g>
	<g>
		<path class="st1" d="M13.3,31.8h8.9c1.2,0,2.3-0.2,3.4-0.6l1.9-0.7v-9.6c-4.9,0-6.7-8.1-6.7-8.1c-0.1-0.9-1-1.6-1.9-1.5h0
			c-0.9,0.1-1.6,1-1.5,1.9l0.1,6.6h-5.9c-1.5,0-2.6,1.4-2.2,2.8l1.7,7.4C11.3,31,12.2,31.8,13.3,31.8z"/>
	</g>
	<line class="st1" x1="17.5" y1="19.7" x2="19.1" y2="19.7"/>
	<rect x="27.6" y="19.9" class="st2" width="6.4" height="12.2"/>
	<path class="st2" d="M31,29.2c0,0.1-0.1,0.2-0.2,0.2c-0.1,0-0.2-0.1-0.2-0.2c0-0.1,0.1-0.2,0.2-0.2C30.9,28.9,31,29,31,29.2z"/>
</g>
</svg>
