<?xml version="1.0" encoding="utf-8"?>
<!-- Generator: Adobe Illustrator 25.0.1, SVG Export Plug-In . SVG Version: 6.00 Build 0)  -->
<svg version="1.1" id="Layer_1" xmlns="http://www.w3.org/2000/svg" xmlns:xlink="http://www.w3.org/1999/xlink" x="0px" y="0px"
	 viewBox="0 0 35 35" style="enable-background:new 0 0 35 35;" xml:space="preserve">
<style type="text/css">
	.st0{fill:#FF7A7E;stroke:#AB2229;stroke-width:0.7;stroke-linecap:round;stroke-linejoin:round;stroke-miterlimit:10;}
	.st1{fill:#FFFFFF;stroke:#AB2229;stroke-width:0.7;stroke-linecap:round;stroke-linejoin:round;stroke-miterlimit:10;}
	.st2{fill:#FF7A7E;}
	.st3{fill:#FFD4D5;}
	.st4{fill:#FFD4D5;stroke:#AB2229;stroke-width:0.7;stroke-linecap:round;stroke-linejoin:round;stroke-miterlimit:10;}
</style>
<g>
	<g>
		<g>
			<rect x="1" y="4.9" class="st0" width="27.9" height="4.3"/>
			<rect x="1" y="9.2" class="st1" width="27.9" height="20.3"/>
			<g>
				<rect x="4.2" y="2.9" class="st1" width="2.5" height="4.2"/>
				<rect x="13.7" y="2.9" class="st1" width="2.5" height="4.2"/>
				<rect x="23.2" y="2.9" class="st1" width="2.5" height="4.2"/>
			</g>
		</g>
		<g>
			<g>
				<g>
					<g>
						<rect x="4.2" y="11.5" class="st2" width="4.8" height="4.8"/>
						<rect x="12.6" y="11.5" class="st2" width="4.8" height="4.8"/>
						<rect x="20.9" y="11.5" class="st2" width="4.8" height="4.8"/>
					</g>
					<g>
						<rect x="4.2" y="18.4" class="st2" width="4.8" height="4.8"/>
						<rect x="12.6" y="18.4" class="st2" width="4.8" height="4.8"/>
					</g>
					<g>
						<line class="st3" x1="4.2" y1="26.2" x2="17.4" y2="26.2"/>
						<rect x="4.2" y="25.5" class="st3" width="13.2" height="1.3"/>
					</g>
				</g>
			</g>
		</g>
	</g>
	<g>
		<path class="st1" d="M22.3,20.4c-2.5,2.5-2.5,6.5,0,9c2.5,2.5,6.5,2.5,9,0c2.5-2.5,2.5-6.5,0-9C28.8,18,24.8,18,22.3,20.4z
			 M29.7,27.8c-1.6,1.6-4.1,1.6-5.7,0s-1.6-4.1,0-5.7c1.6-1.6,4.1-1.6,5.7,0C31.2,23.6,31.2,26.2,29.7,27.8z"/>
		<circle class="st0" cx="26.8" cy="24.9" r="4"/>
		<path class="st4" d="M33.6,31.8L33.6,31.8c-0.5,0.5-1.3,0.5-1.7,0l-1.4-1.4c-0.5-0.5-0.5-1.3,0-1.7l0,0c0.5-0.5,1.3-0.5,1.7,0
			l1.4,1.4C34.1,30.5,34.1,31.3,33.6,31.8z"/>
	</g>
</g>
</svg>
