<?xml version="1.0" encoding="utf-8"?>
<!-- Generator: Adobe Illustrator 25.0.1, SVG Export Plug-In . SVG Version: 6.00 Build 0)  -->
<svg version="1.1" id="Layer_1" xmlns="http://www.w3.org/2000/svg" xmlns:xlink="http://www.w3.org/1999/xlink" x="0px" y="0px"
	 viewBox="0 0 65 65" style="enable-background:new 0 0 65 65;" xml:space="preserve">
<style type="text/css">
	.st0{fill:none;stroke:#111111;stroke-width:1.7;stroke-linecap:round;stroke-linejoin:round;stroke-miterlimit:10;}
	.st1{fill:none;stroke:#F24C60;stroke-width:1.7;stroke-linecap:round;stroke-linejoin:round;stroke-miterlimit:10;}
</style>
<g>
	<line class="st0" x1="9" y1="55.5" x2="56" y2="55.5"/>
	<g>
		<path class="st0" d="M44.1,21.3h5.5v12.9c0,4.8-4.1,8.6-9.2,8.6H24.6c-5.1,0-9.2-3.9-9.2-8.6V21.3h24.1"/>
		<path class="st0" d="M13.9,28.2h1.5v-6.8h-1.5c-1.9,0-3.4,1.5-3.4,3.4v0C10.5,26.6,12,28.2,13.9,28.2z"/>
		<path class="st0" d="M49.6,28.2h1.5c1.9,0,3.4-1.5,3.4-3.4v0c0-1.9-1.5-3.4-3.4-3.4h-1.5V28.2z"/>
	</g>
	<g>
		<path class="st1" d="M26.2,50.4c0,1.5-1.2,2.7-2.7,2.7c-1.5,0-2.7-1.2-2.7-2.7c0-1.5,2.7-4.3,2.7-4.3S26.2,48.9,26.2,50.4z"/>
		<path class="st1" d="M35.2,50.4c0,1.5-1.2,2.7-2.7,2.7s-2.7-1.2-2.7-2.7c0-1.5,2.7-4.3,2.7-4.3S35.2,48.9,35.2,50.4z"/>
		<path class="st1" d="M44.2,50.4c0,1.5-1.2,2.7-2.7,2.7s-2.7-1.2-2.7-2.7c0-1.5,2.7-4.3,2.7-4.3S44.2,48.9,44.2,50.4z"/>
	</g>
	<g>
		<path class="st0" d="M23.5,9.5c0,0,1.1,0.6,1.1,1.9s-1.1,1.9-1.1,1.9"/>
		<path class="st0" d="M23.5,17.3c0,0-1.1-0.6-1.1-1.9s1.1-1.9,1.1-1.9"/>
	</g>
	<g>
		<path class="st0" d="M31.8,9.5c0,0,1.1,0.6,1.1,1.9s-1.1,1.9-1.1,1.9"/>
		<path class="st0" d="M31.8,17.3c0,0-1.1-0.6-1.1-1.9s1.1-1.9,1.1-1.9"/>
	</g>
	<g>
		<path class="st0" d="M40.4,9.5c0,0,1.1,0.6,1.1,1.9s-1.1,1.9-1.1,1.9"/>
		<path class="st0" d="M40.4,17.3c0,0-1.1-0.6-1.1-1.9s1.1-1.9,1.1-1.9"/>
	</g>
	<line class="st0" x1="19.2" y1="25.7" x2="19.2" y2="32.6"/>
</g>
</svg>
