<?xml version="1.0" encoding="utf-8"?>
<!-- Generator: Adobe Illustrator 25.0.1, SVG Export Plug-In . SVG Version: 6.00 Build 0)  -->
<svg version="1.1" id="Layer_1" xmlns="http://www.w3.org/2000/svg" xmlns:xlink="http://www.w3.org/1999/xlink" x="0px" y="0px"
	 viewBox="0 0 65 65" style="enable-background:new 0 0 65 65;" xml:space="preserve">
<style type="text/css">
	.st0{fill:none;stroke:#111111;stroke-width:1.7;stroke-linecap:round;stroke-linejoin:round;stroke-miterlimit:10;}
	.st1{fill:none;stroke:#F24C60;stroke-width:1.7;stroke-linecap:round;stroke-linejoin:round;stroke-miterlimit:10;}
</style>
<g>
	<g>
		<g>
			<g>
				<polyline class="st0" points="55.8,16 61.1,16 61.1,55.3 32.5,55.3 				"/>
				<path class="st1" d="M55.8,9.8c0,0-6.6-0.5-12.6,1.4c-7,1.9-10.7,4.8-10.7,4.8v39.3c0,0,5.3-3.4,11.7-5.1
					C51,48.4,55.8,49,55.8,49V9.8z"/>
				<path class="st1" d="M38.5,23.6c0,0,4.1-3.1,11.2-2.8"/>
				<path class="st1" d="M38.6,31.2c0,0,3.5-3.1,10.7-2.8"/>
				<path class="st1" d="M38.5,38.8c0,0,4.1-3.1,11.2-2.8"/>
			</g>
		</g>
	</g>
	<g>
		<g>
			<g>
				<polyline class="st0" points="9.2,16 3.9,16 3.9,55.3 32.5,55.3 				"/>
				<path class="st1" d="M9.2,9.8c0,0,6.6-0.5,12.6,1.4c7,1.9,10.7,4.8,10.7,4.8v39.3c0,0-5.3-3.4-11.7-5.1C14,48.4,9.2,49,9.2,49
					V9.8z"/>
				<path class="st1" d="M26.5,23.6c0,0-4.1-3.1-11.2-2.8"/>
				<path class="st1" d="M26.4,31.2c0,0-3.5-3.1-10.7-2.8"/>
				<path class="st1" d="M26.5,38.8c0,0-4.1-3.1-11.2-2.8"/>
			</g>
		</g>
	</g>
</g>
</svg>
