<?xml version="1.0" encoding="utf-8"?>
<!-- Generator: Adobe Illustrator 25.0.1, SVG Export Plug-In . SVG Version: 6.00 Build 0)  -->
<svg version="1.1" id="Layer_1" xmlns="http://www.w3.org/2000/svg" xmlns:xlink="http://www.w3.org/1999/xlink" x="0px" y="0px"
	 viewBox="0 0 65 65" style="enable-background:new 0 0 65 65;" xml:space="preserve">
<style type="text/css">
	.st0{fill:none;stroke:#F24C60;stroke-width:1.7;stroke-linecap:round;stroke-linejoin:round;stroke-miterlimit:10;}
	.st1{fill:none;stroke:#000000;stroke-width:1.5;stroke-linecap:round;stroke-linejoin:round;stroke-miterlimit:10;}
</style>
<g>
	<g>
		<polyline class="st0" points="8.7,28.4 8.7,15.3 11,16.3 		"/>
		<line class="st0" x1="14.2" y1="17.7" x2="24.6" y2="22.2"/>
		<polyline class="st0" points="40.4,28.1 40.4,15.3 24.6,22.2 24.6,34.9 		"/>
		<polyline class="st0" points="8.7,15.3 24.6,8.5 40.4,15.3 		"/>
	</g>
	<g>
		<polygon class="st1" points="40.4,56.5 8.7,42.9 8.7,28.4 40.4,42 		"/>
		<polyline class="st1" points="49.9,37.9 40.4,42 40.4,56.5 56.3,49.7 56.3,35.1 53.6,36.3 		"/>
		<polyline class="st1" points="24.6,35.1 40.4,28.3 56.3,35.1 		"/>
	</g>
	<ellipse class="st1" cx="47.4" cy="34.8" rx="2.2" ry="1.3"/>
	<ellipse class="st1" cx="41" cy="31.9" rx="2.2" ry="1.3"/>
	<ellipse class="st1" cx="41" cy="37.8" rx="2.2" ry="1.3"/>
	<ellipse class="st1" cx="34.7" cy="35" rx="2.2" ry="1.3"/>
	<ellipse class="st0" cx="30.9" cy="14.8" rx="2.2" ry="1.3"/>
	<ellipse class="st0" cx="24.6" cy="12" rx="2.2" ry="1.3"/>
	<ellipse class="st0" cx="24.6" cy="17.9" rx="2.2" ry="1.3"/>
	<ellipse class="st0" cx="18.2" cy="15.1" rx="2.2" ry="1.3"/>
	<line class="st1" x1="11.9" y1="41.2" x2="28.8" y2="48.4"/>
</g>
</svg>
