<?xml version="1.0" encoding="utf-8"?>
<!-- Generator: Adobe Illustrator 25.0.1, SVG Export Plug-In . SVG Version: 6.00 Build 0)  -->
<svg version="1.1" id="Layer_1" xmlns="http://www.w3.org/2000/svg" xmlns:xlink="http://www.w3.org/1999/xlink" x="0px" y="0px"
	 viewBox="0 0 65 65" style="enable-background:new 0 0 65 65;" xml:space="preserve">
<style type="text/css">
	.st0{fill:none;stroke:#F24C60;stroke-width:1.7;stroke-linecap:round;stroke-linejoin:round;stroke-miterlimit:10;}
	.st1{fill:none;stroke:#111111;stroke-width:1.7;stroke-linecap:round;stroke-linejoin:round;stroke-miterlimit:10;}
</style>
<g>
	<line class="st0" x1="10.1" y1="46.5" x2="35.5" y2="46.5"/>
	<line class="st0" x1="22.3" y1="39.5" x2="38.7" y2="39.5"/>
	<line class="st0" x1="13.3" y1="39.5" x2="16.5" y2="39.5"/>
	<line class="st0" x1="41.9" y1="32.5" x2="16.5" y2="32.5"/>
	<line class="st0" x1="41.9" y1="25.5" x2="45.2" y2="25.5"/>
	<line class="st0" x1="19.7" y1="25.5" x2="36.5" y2="25.5"/>
	<line class="st0" x1="48.4" y1="18.5" x2="22.9" y2="18.5"/>
	<g>
		<polygon class="st1" points="22.9,11.5 22.9,18.5 19.7,18.5 19.7,25.5 16.5,25.5 16.5,32.5 13.3,32.5 13.3,39.5 10.1,39.5 
			10.1,46.5 6.9,46.5 6.9,53.5 35.5,53.5 35.5,46.5 38.7,46.5 38.7,39.5 41.9,39.5 41.9,32.5 45.2,32.5 45.2,25.5 48.4,25.5 
			48.4,18.5 51.6,18.5 51.6,11.5 		"/>
		<polyline class="st1" points="50.1,11.5 58.1,11.5 58.1,53.5 35.5,53.5 		"/>
	</g>
</g>
</svg>
