<?xml version="1.0" encoding="utf-8"?>
<!-- Generator: Adobe Illustrator 25.0.1, SVG Export Plug-In . SVG Version: 6.00 Build 0)  -->
<svg version="1.1" id="Layer_1" xmlns="http://www.w3.org/2000/svg" xmlns:xlink="http://www.w3.org/1999/xlink" x="0px" y="0px"
	 viewBox="0 0 65 65" style="enable-background:new 0 0 65 65;" xml:space="preserve">
<style type="text/css">
	.st0{fill:none;stroke:#000000;stroke-width:1.7;stroke-linecap:round;stroke-linejoin:round;stroke-miterlimit:10;}
	.st1{fill:none;stroke:#F24C60;stroke-width:1.7;stroke-linecap:round;stroke-linejoin:round;stroke-miterlimit:10;}
</style>
<g>
	<polyline class="st0" points="31.1,50.6 58.1,50.6 58.1,55.5 6.9,55.5 6.9,50.6 18,50.6 	"/>
	<polygon class="st0" points="55.8,28.9 32.6,13.8 9.2,28.9 9.2,24.6 32.6,9.5 55.8,24.6 	"/>
	<g>
		<line class="st0" x1="12.4" y1="26.9" x2="12.4" y2="50.6"/>
		<line class="st0" x1="52.6" y1="26.9" x2="52.6" y2="50.6"/>
	</g>
	<polyline class="st0" points="49.8,20.6 49.8,9.5 45,9.5 45,17.6 	"/>
	<path class="st1" d="M28.1,33.5H21c-1.7,0-3,1.3-3,3v19h13.1v-19C31.1,34.9,29.8,33.5,28.1,33.5z"/>
	<circle class="st0" cx="32.5" cy="24.6" r="3.1"/>
	<rect x="36.1" y="33.5" class="st0" width="11.3" height="7.8"/>
</g>
</svg>
