<?xml version="1.0" encoding="utf-8"?>
<!-- Generator: Adobe Illustrator 25.0.1, SVG Export Plug-In . SVG Version: 6.00 Build 0)  -->
<svg version="1.1" id="Layer_1" xmlns="http://www.w3.org/2000/svg" xmlns:xlink="http://www.w3.org/1999/xlink" x="0px" y="0px"
	 viewBox="0 0 65 65" style="enable-background:new 0 0 65 65;" xml:space="preserve">
<style type="text/css">
	.st0{fill:none;stroke:#111111;stroke-width:1.7;stroke-linecap:round;stroke-linejoin:round;stroke-miterlimit:10;}
	.st1{fill:none;stroke:#F24C60;stroke-width:1.7;stroke-linecap:round;stroke-linejoin:round;stroke-miterlimit:10;}
	.st2{fill:none;stroke:#F24C60;stroke-width:1.2;stroke-linecap:round;stroke-linejoin:round;stroke-miterlimit:10;}
	.st3{fill:#F24C60;}
</style>
<g>
	<g>
		<path class="st0" d="M60.5,55.5c-2.5,0-5.1-1-7-2.9c-3.9,3.9-10.1,3.9-14,0c-3.9,3.9-10.1,3.9-14,0c-3.9,3.9-10.1,3.9-14,0
			c-1.9,1.9-4.5,2.9-7,2.9"/>
		<path class="st0" d="M60.5,45.9c-2.5,0-5.1-1-7-2.9c-3.9,3.9-10.1,3.9-14,0c-3.9,3.9-10.1,3.9-14,0c-3.9,3.9-10.1,3.9-14,0
			c-1.9,1.9-4.5,2.9-7,2.9"/>
		<path class="st0" d="M8.5,13.7c0-2.6,1.8-4.2,3.9-4.2c2.2,0,3.9,1.6,3.9,4.2v26"/>
		<path class="st0" d="M25.5,13.7c0-2.6,1.8-4.2,3.9-4.2c2.2,0,3.9,1.6,3.9,4.2v26"/>
		<line class="st0" x1="23.9" y1="17.6" x2="33.3" y2="17.6"/>
		<line class="st0" x1="16.5" y1="17.6" x2="19.5" y2="17.6"/>
		<line class="st0" x1="30.1" y1="34.9" x2="33.3" y2="34.9"/>
		<line class="st0" x1="16.5" y1="34.9" x2="25.9" y2="34.9"/>
		<line class="st0" x1="16.5" y1="26.3" x2="33.3" y2="26.3"/>
	</g>
	<g>
		<path class="st1" d="M49.1,30.6V19.8c0-1.1-0.9-2-2-2h0c-1.1,0-2,0.9-2,2v10.8c-1.1,0.8-1.8,2.2-1.4,3.7c0.3,1.3,1.3,2.4,2.6,2.7
			c2.3,0.5,4.4-1.2,4.4-3.4C50.6,32.3,50,31.3,49.1,30.6z"/>
		<line class="st2" x1="45.3" y1="22.1" x2="46.9" y2="22.1"/>
		<line class="st2" x1="45.3" y1="24" x2="46.9" y2="24"/>
		<line class="st2" x1="45.3" y1="25.8" x2="46.9" y2="25.8"/>
		<circle class="st3" cx="47" cy="33.4" r="1.3"/>
	</g>
</g>
</svg>
