<?xml version="1.0" encoding="utf-8"?>
<!-- Generator: Adobe Illustrator 25.0.1, SVG Export Plug-In . SVG Version: 6.00 Build 0)  -->
<svg version="1.1" id="Layer_1" xmlns="http://www.w3.org/2000/svg" xmlns:xlink="http://www.w3.org/1999/xlink" x="0px" y="0px"
	 viewBox="0 0 65 65" style="enable-background:new 0 0 65 65;" xml:space="preserve">
<style type="text/css">
	.st0{fill:none;stroke:#F24C60;stroke-width:1.7;stroke-linecap:round;stroke-linejoin:round;stroke-miterlimit:10;}
	.st1{fill:none;stroke:#111111;stroke-width:1.7;stroke-linecap:round;stroke-linejoin:round;stroke-miterlimit:10;}
</style>
<g>
	<path class="st0" d="M60.3,55.5c-2.5,0-5.1-1-7-2.9c-3.9,3.9-10.1,3.9-14,0c-3.9,3.9-10.1,3.9-14,0c-3.9,3.9-10.1,3.9-14,0
		c-1.9,1.9-4.5,2.9-7,2.9"/>
	<path class="st0" d="M60.3,45.9c-2.5,0-5.1-1-7-2.9c-3.9,3.9-10.1,3.9-14,0c-3.9,3.9-10.1,3.9-14,0c-3.9,3.9-10.1,3.9-14,0
		c-1.9,1.9-4.5,2.9-7,2.9"/>
	<path class="st1" d="M13,13.7c0-2.6,1.8-4.2,3.9-4.2c2.2,0,3.9,1.6,3.9,4.2v26"/>
	<path class="st1" d="M35.3,13.7c0-2.6,1.8-4.2,3.9-4.2c2.2,0,3.9,1.6,3.9,4.2v26"/>
	<line class="st1" x1="29.6" y1="17.6" x2="43" y2="17.6"/>
	<line class="st1" x1="21.1" y1="17.6" x2="25.3" y2="17.6"/>
	<line class="st1" x1="38.8" y1="34.9" x2="43" y2="34.9"/>
	<line class="st1" x1="21.1" y1="34.9" x2="34.7" y2="34.9"/>
	<line class="st1" x1="21.1" y1="26.3" x2="43" y2="26.3"/>
	<line class="st1" x1="4.3" y1="26.3" x2="60.7" y2="26.3"/>
</g>
</svg>
