<?xml version="1.0" encoding="utf-8"?>
<!-- Generator: Adobe Illustrator 25.0.1, SVG Export Plug-In . SVG Version: 6.00 Build 0)  -->
<svg version="1.1" id="Layer_1" xmlns="http://www.w3.org/2000/svg" xmlns:xlink="http://www.w3.org/1999/xlink" x="0px" y="0px"
	 viewBox="0 0 65 65" style="enable-background:new 0 0 65 65;" xml:space="preserve">
<style type="text/css">
	.st0{fill:none;stroke:#111111;stroke-width:1.7;stroke-linecap:round;stroke-linejoin:round;stroke-miterlimit:10;}
	.st1{fill:none;stroke:#F24C60;stroke-width:1.7;stroke-linecap:round;stroke-linejoin:round;stroke-miterlimit:10;}
</style>
<g>
	<line class="st0" x1="25.5" y1="29.5" x2="18.5" y2="55.5"/>
	<polyline class="st1" points="24.6,19 37,19 39.2,23.3 	"/>
	<path class="st0" d="M11.5,19"/>
	<line class="st0" x1="10.1" y1="24.7" x2="23" y2="24.7"/>
	<line class="st0" x1="22.5" y1="30.9" x2="24.8" y2="30.9"/>
	<line class="st0" x1="8.5" y1="30.9" x2="18.4" y2="30.9"/>
	<line class="st0" x1="6.8" y1="37.1" x2="23.2" y2="37.1"/>
	<line class="st0" x1="12.5" y1="43.3" x2="21.5" y2="43.3"/>
	<line class="st0" x1="5.1" y1="43.3" x2="8.1" y2="43.3"/>
	<line class="st0" x1="3.5" y1="49.5" x2="19.9" y2="49.5"/>
	<line class="st1" x1="38.3" y1="55.2" x2="62" y2="55.2"/>
	<path class="st0" d="M20.7,9.5h-6.4c-1.1,0-2,0.9-2,2v3.8h10.4v-3.8C22.7,10.4,21.9,9.5,20.7,9.5z"/>
	<path class="st0" d="M37.3,9.5h-6c-1.1,0-2,0.9-2,2v3.8h10v-3.8C39.3,10.4,38.4,9.5,37.3,9.5z"/>
	<path class="st1" d="M1.6,55.5l10.8-40.2h10.4l17.8,35.8h4.6c0,0,1.7,0.3,1.7,2.1s-1.7,2-1.7,2h-6.9L20.3,19h-8.8"/>
	<path class="st1" d="M41.4,27.7l14,27.5H62c0,0,1.4-0.6,1.4-2.1c0-1.5-1.4-1.9-1.4-1.9h-4.5L39.4,15.3H29.3l-0.9,3.6"/>
	<polyline class="st0" points="1.6,55.5 12.4,15.3 12.4,13.9 	"/>
</g>
</svg>
