<?xml version="1.0" encoding="utf-8"?>
<!-- Generator: Adobe Illustrator 25.0.1, SVG Export Plug-In . SVG Version: 6.00 Build 0)  -->
<svg version="1.1" id="Layer_1" xmlns="http://www.w3.org/2000/svg" xmlns:xlink="http://www.w3.org/1999/xlink" x="0px" y="0px"
	 viewBox="0 0 65 65" style="enable-background:new 0 0 65 65;" xml:space="preserve">
<style type="text/css">
	.st0{fill:none;stroke:#F24C60;stroke-width:1.7;stroke-linecap:round;stroke-linejoin:round;stroke-miterlimit:10;}
	.st1{fill:none;stroke:#000000;stroke-width:1.7;stroke-linecap:round;stroke-linejoin:round;stroke-miterlimit:10;}
</style>
<g>
	<g>
		<line class="st0" x1="27.1" y1="24.1" x2="20" y2="13.2"/>
		<line class="st0" x1="37.9" y1="24.1" x2="45" y2="13.2"/>
	</g>
	<g>
		<line class="st0" x1="28" y1="41.4" x2="22" y2="53"/>
		<line class="st0" x1="22.5" y1="32" x2="9.5" y2="31.3"/>
	</g>
	<g>
		<line class="st0" x1="42.5" y1="32" x2="55.5" y2="31.3"/>
		<line class="st0" x1="37" y1="41.4" x2="43" y2="53"/>
	</g>
	<path class="st1" d="M51.2,18.7c1.4-1.4,1.4-3.5,0-4.9c-1.4-1.4-3.5-1.4-4.9,0"/>
	<path class="st1" d="M18.7,13.8c-1.4-1.4-3.5-1.4-4.9,0s-1.4,3.5,0,4.9"/>
	<path class="st1" d="M13.8,46.3c-1.4,1.4-1.4,3.5,0,4.9c1.4,1.4,3.5,1.4,4.9,0"/>
	<path class="st1" d="M46.3,51.2c1.4,1.4,3.5,1.4,4.9,0c1.4-1.4,1.4-3.5,0-4.9"/>
	<circle class="st1" cx="32.5" cy="32.5" r="23"/>
	<path class="st1" d="M13.8,32.5c0-1.5,0.2-3,0.5-4.4"/>
	<path class="st1" d="M36.2,14.2c0.9,0.2,1.8,0.4,2.6,0.7"/>
	<path class="st1" d="M17.3,21.6c3.4-4.7,8.9-7.8,15.2-7.8"/>
	<circle class="st1" cx="32.5" cy="32.5" r="10"/>
</g>
</svg>
