<?xml version="1.0" encoding="utf-8"?>
<!-- Generator: Adobe Illustrator 25.0.1, SVG Export Plug-In . SVG Version: 6.00 Build 0)  -->
<svg version="1.1" id="Layer_1" xmlns="http://www.w3.org/2000/svg" xmlns:xlink="http://www.w3.org/1999/xlink" x="0px" y="0px"
	 viewBox="0 0 55 10" style="enable-background:new 0 0 55 10;" xml:space="preserve">
<style type="text/css">
	.st0{fill:#2DB400;}
</style>
<g>
	<polygon class="st0" points="7.8,0 7.8,5 4.3,0 0.6,0 0.6,10 4.3,10 4.3,5 7.7,10 11.5,10 11.5,0 	"/>
	<path class="st0" d="M51.4,6.3c1.3-0.4,2.2-1.3,2.2-2.9c0-2.6-2-3.4-4.7-3.4c-1.3,0-4.7,0-4.7,0v10h3.7V6.9l2.2,3.1h4.3L51.4,6.3z
		 M49.6,4.2c-0.2,0.2-0.6,0.3-1,0.3h-0.8v-2h0.8c0.4,0,0.8,0.1,1,0.3c0.2,0.2,0.3,0.4,0.3,0.7C49.9,3.8,49.8,4,49.6,4.2z"/>
	<path class="st0" d="M35.1,0h7.5v2.6h-3.9v1.2h3.6v2.5h-3.6v1.2h4V10h-7.7V0z"/>
	<path class="st0" d="M20.4,0h-4.2l-3.9,10h4.1l0.4-1.3h3.1l0.4,1.3h4.1L20.4,0z M17.4,6.4l0.9-3.3h0.1l0.9,3.3H17.4z"/>
	<polygon class="st0" points="30.3,0 28.4,6 28.3,6 26.5,0 22.4,0 26.6,10 30.2,10 34.3,0 	"/>
</g>
</svg>
