<?xml version="1.0" encoding="utf-8"?>
<!-- Generator: Adobe Illustrator 25.0.1, SVG Export Plug-In . SVG Version: 6.00 Build 0)  -->
<svg version="1.1" id="Layer_1" xmlns="http://www.w3.org/2000/svg" xmlns:xlink="http://www.w3.org/1999/xlink" x="0px" y="0px"
	 viewBox="0 0 35 10" style="enable-background:new 0 0 35 10;" xml:space="preserve">
<style type="text/css">
	.st0{fill:#E63B73;}
</style>
<path class="st0" d="M17.5,4.4v3h-1.4V4.5c0-0.6-0.4-1.1-1.1-1.1c-0.6,0-1.1,0.5-1.1,1.1l0,2.9h-1.4V2.3h1.3v0.6
	c0.3-0.5,1-0.7,1.5-0.7C17,2.3,17.5,3.3,17.5,4.4 M4.6,2.3L3.2,5.5L1.8,2.3H0.2l2.3,4.8L1.2,10h1.5l3.4-7.7H4.6z M23.8,4.9
	c0,1.5-1.2,2.7-2.7,2.7s-2.7-1.2-2.7-2.7c0-1.5,1.2-2.7,2.7-2.7S23.8,3.4,23.8,4.9 M22.4,4.9c0-0.7-0.6-1.3-1.3-1.3
	c-0.7,0-1.3,0.6-1.3,1.3c0,0.7,0.6,1.3,1.3,1.3C21.8,6.2,22.4,5.6,22.4,4.9 M11.5,5.1L11.5,5.1l0,2.4h-1.2V6.9
	C9.9,7.3,9.4,7.6,8.8,7.6c-1.5,0-2.7-1.2-2.7-2.7c0-1.5,1.2-2.7,2.7-2.7C10.3,2.3,11.5,3.4,11.5,5.1 M10.1,4.9
	c0-0.7-0.6-1.3-1.3-1.3c-0.7,0-1.3,0.6-1.3,1.3c0,0.7,0.6,1.3,1.3,1.3C9.5,6.2,10.1,5.6,10.1,4.9 M34.8,5.1v2.4h-1.2V6.9
	c-0.4,0.4-0.9,0.6-1.5,0.6c-1.5,0-2.7-1.2-2.7-2.7c0-1.5,1.2-2.7,2.7-2.7C33.5,2.3,34.8,3.4,34.8,5.1z M33.4,4.9
	c0-0.7-0.6-1.3-1.3-1.3c-0.7,0-1.3,0.6-1.3,1.3c0,0.7,0.6,1.3,1.3,1.3C32.8,6.2,33.4,5.6,33.4,4.9 M24.6,7.4H26V0h-1.4V7.4z
	 M27.2,7.4c0,1-0.6,1.3-1.1,1.3c0,0,0,1.4,0,1.4c0.8,0,2.5-0.2,2.5-2.6h0V2.3h-1.4V7.4z"/>
</svg>
