<?xml version="1.0" encoding="utf-8"?>
<!-- Generator: Adobe Illustrator 25.0.1, SVG Export Plug-In . SVG Version: 6.00 Build 0)  -->
<svg version="1.1" id="Layer_1" xmlns="http://www.w3.org/2000/svg" xmlns:xlink="http://www.w3.org/1999/xlink" x="0px" y="0px"
	 viewBox="0 0 55 10" style="enable-background:new 0 0 55 10;" xml:space="preserve">
<style type="text/css">
	.st0{fill:#F5333F;}
</style>
<g>
	<path class="st0" d="M22.3,0.4L22.3,0.4c-0.7,0-1.3,0.6-1.3,1.3v7.7h2.7V1.8C23.6,1,23,0.4,22.3,0.4"/>
	<path class="st0" d="M18.3,0.4h-3.8c-0.7,0-1.3,0.6-1.3,1.3c0,0.7,0.6,1.3,1.3,1.3h2.7c0.3,0,0.5,0.2,0.5,0.5v5.9h2.7V2.4
		C20.3,1.3,19.4,0.4,18.3,0.4"/>
	<path class="st0" d="M29.3,6.9c-1.1,0-2-0.9-2-2c0-1.1,0.9-2,2-2c1.1,0,2,0.9,2,2C31.3,6.1,30.4,6.9,29.3,6.9 M35.7,0.4
		c-0.7,0-1.3,0.6-1.3,1.3v1.9h-0.8c-0.5-1.9-2.3-3.3-4.3-3.3c-2.5,0-4.5,2-4.5,4.5c0,2.5,2,4.5,4.5,4.5c2,0,3.7-1.3,4.3-3.1h0.8v3.1
		h2.7V1.8C37.1,1,36.5,0.4,35.7,0.4"/>
	<path class="st0" d="M40.4,3.6c0-0.3,0.2-0.5,0.5-0.5h0.8v3.7h-0.8c-0.3,0-0.5-0.2-0.5-0.5V3.6z M37.7,2.4v0.7v3.7v0v0.7
		c0,1.1,0.9,2,2,2h5.1V6.8h-0.7V3.1h0.7V0.4h-5.1C38.6,0.4,37.7,1.3,37.7,2.4"/>
	<path class="st0" d="M53.7,6.9c-0.7,0-1.3,0.6-1.3,1.3c0,0.7,0.6,1.3,1.3,1.3C54.4,9.6,55,9,55,8.2C55,7.5,54.4,6.9,53.7,6.9"/>
	<path class="st0" d="M9,5.6C9,5.4,9,5.2,9,5c0-0.2,0-0.4,0-0.6h0.9v1.2H9z M4.5,6.9c-1.1,0-2-0.9-2-2c0-1.1,0.9-2,2-2
		c1.1,0,2,0.9,2,2C6.5,6.1,5.6,6.9,4.5,6.9 M11.2,0.4c-0.7,0-1.3,0.6-1.3,1.3V2v0.1H8c-0.8-1-2.1-1.6-3.5-1.6C2,0.4,0,2.5,0,5
		c0,2.5,2,4.5,4.5,4.5c1.4,0,2.7-0.6,3.5-1.6h1.9v0.1v1.6h2.7V1.8C12.6,1,12,0.4,11.2,0.4"/>
	<path class="st0" d="M48.6,0.4c-1.7,0-3.1,1.4-3.1,3.1v5.9h2.7V3.5c0-0.2,0.2-0.4,0.4-0.4c0.2,0,0.4,0.2,0.4,0.4v5.9h2.7V3.5
		C51.7,1.8,50.3,0.4,48.6,0.4"/>
</g>
</svg>
